
<svg height="256" viewBox="0 0 256 256" width="256" xmlns="http://www.w3.org/2000/svg"><g fill="#000" stroke-miterlimit="10" stroke-width="0" transform="matrix(2.81 0 0 2.81 1.406593 1.406593)"><path d="m39.084 74.233c-4.28 0-8.316-1.365-11.673-3.949-.625-.481-1.229-1.008-1.792-1.565-3.92-3.874-5.892-9.032-5.554-14.526.257-4.154 1.931-8.157 4.713-11.273 3.684-4.126 8.764-6.399 14.306-6.399.949 0 1.911.071 2.857.211.981.145 1.708.987 1.708 1.979v9.03c0 .642-.308 1.245-.828 1.621-.521.375-1.189.479-1.799.278-.617-.204-1.26-.308-1.911-.308-1.642 0-3.18.644-4.331 1.812-1.144 1.16-1.76 2.697-1.736 4.325.031 2.101 1.138 4.006 2.961 5.098.838.501 1.794.795 2.765.848.768.041 1.525-.058 2.25-.298 2.488-.821 4.158-3.127 4.158-5.738l.011-37.611c0-1.104.896-2 2-2h8.893c1.097 0 1.989.883 2 1.98.008.747.083 1.488.226 2.203.563 2.825 2.146 5.342 4.461 7.086 2.038 1.537 4.466 2.355 7.027 2.368.159-.007.317.005.477.037.936.186 1.609 1.007 1.609 1.961v8.854c0 1.104-.896 2-1.999 2-.003 0-.006 0-.009 0-3.311 0-6.528-.649-9.563-1.93-.755-.319-1.492-.675-2.209-1.065l.037 16.182c-.021 5.024-2.006 9.734-5.588 13.276-2.906 2.872-6.575 4.706-10.608 5.305-.947.138-1.908.208-2.859.208zm0-33.712c-4.387 0-8.408 1.798-11.322 5.063-2.188 2.449-3.503 5.594-3.705 8.855-.266 4.324 1.287 8.385 4.373 11.435.448.442.926.86 1.421 1.241 2.65 2.041 5.843 3.119 9.233 3.119.755 0 1.521-.057 2.273-.167 3.185-.473 6.084-1.923 8.381-4.193 2.821-2.788 4.384-6.494 4.4-10.434l-.046-19.865c-.002-.763.431-1.46 1.115-1.798.684-.337 1.5-.256 2.106.21 1.392 1.074 2.924 1.967 4.552 2.655 1.927.813 3.943 1.322 6.016 1.521v-4.878c-2.729-.337-5.298-1.376-7.521-3.053-3.1-2.336-5.222-5.71-5.976-9.499-.063-.318-.116-.64-.16-.964h-5.035l-.01 35.611c0 4.339-2.774 8.171-6.903 9.534-1.201.397-2.455.56-3.725.494-1.616-.089-3.207-.576-4.6-1.41-3.021-1.808-4.855-4.974-4.907-8.47-.041-2.708.984-5.262 2.886-7.192 2.034-2.065 4.837-3.139 7.718-2.99v-4.815c-.188-.007-.376-.01-.564-.01zm30.798-.265h.01z"/><path d="m77.552 90h-65.104c-6.864 0-12.448-5.584-12.448-12.448v-65.104c0-6.864 5.584-12.448 12.448-12.448h65.104c6.864 0 12.448 5.584 12.448 12.448v65.104c0 6.864-5.584 12.448-12.448 12.448zm-65.104-86c-4.658 0-8.448 3.79-8.448 8.448v65.104c0 4.658 3.79 8.448 8.448 8.448h65.104c4.658 0 8.448-3.79 8.448-8.448v-65.104c0-4.658-3.79-8.448-8.448-8.448z"/></g></svg>
